<?xml version="1.0" encoding="utf-8"?>
<!-- Generator: Adobe Illustrator 27.4.1, SVG Export Plug-In . SVG Version: 6.00 Build 0)  -->
<svg version="1.1" id="图层_1" xmlns="http://www.w3.org/2000/svg" xmlns:xlink="http://www.w3.org/1999/xlink" x="0px" y="0px"
	 viewBox="0 0 72 72" style="enable-background:new 0 0 72 72;" xml:space="preserve">
<style type="text/css">
	.st0{fill:#A98467;}
</style>
<g>
	<path class="st0" d="M35.8,67.1c-7.8,0-14.8-1.4-21.4-4.5c-2.4-1.1-4.4-2.7-6.1-4.7c-2.1-2.5-2.7-5.5-2.3-8.6
		c0.3-2.6,0.5-5.2,0.5-7.8c0-2.6,0.7-5.3,1.5-7.8c1.2-4.2,3.4-7.9,6.8-10.7c0.5-0.4,0.7-0.9,0.5-1.5c-0.4-1.2-0.6-2.5-1-3.7
		c-1-3.4,0.9-6.7,3.3-7.8c2.3-1.1,4.8-1.9,7.2-2.9c1-0.4,1.9-0.9,2.8-1.5c0.9-0.6,1.8-1.3,2.7-1.8c1.2-0.7,2.3-0.5,3.4,0.4
		c0.3,0.2,0.5,0.4,0.8,0.6c0.9,0.9,1.8,1.5,3.1,0.9c0.4-0.2,0.9-0.1,1.3,0c2.5,0.4,5.1,0.7,7.5,1.3c3,0.6,5.7,1.9,7.9,4
		c1.9,1.8,2.6,4.1,1.9,6.7c-0.3,1.4-0.7,2.7-1.1,4.1c-0.2,0.7-0.1,1.2,0.4,1.8c4.2,4.4,6.4,9.8,7.6,15.8c0,0.1,0.1,0.2,0.1,0.3
		c-0.4,3.5,0.6,6.9,1.2,10.3c0.7,4.3-1,7.5-4.1,10.1c-3.5,2.9-7.7,4.5-12,5.6C44,66.6,39.6,67.2,35.8,67.1
		C35.8,67.1,35.8,67.1,35.8,67.1z M52.3,27.5c-2,2-4.4,3.2-7,3.7c-2.7,0.5-5.4,1-8.1,1.2c-7,0.3-13.9,0.2-19.8-4.7
		c-0.6,0.7-1.1,1.4-1.7,2.2c-2.2,3.1-3.3,6.6-4.1,10.3c-0.2,1,0,1.9,0.6,2.7c1.9,2.6,4.4,4.4,7.6,5.2c0.7,0.2,1.3,0.3,2.1,0.5
		c-0.1,1.4-0.2,2.8-0.3,4.2c0,0.8-0.3,1-1.1,0.9c-2.6-0.5-5-1.4-7.2-2.8c-0.7-0.4-1.3-0.8-2-1.2c-0.6,2.9,0.4,5,2.6,6.4
		c1.9,1.2,3.8,2.6,5.9,3.2c9.1,3,18.3,3.3,27.6,1c3.4-0.8,6.5-2.1,9.2-4.3c2-1.6,2.8-3.7,2.3-6.2c-2.2,1.3-4.5,2.6-6.8,4
		c-0.7-1.9-1.3-3.5-1.8-5c2.5-1.1,4.7-2.3,6.3-4.3c1-1.3,1.5-2.8,1.2-4.4c-0.9-4.3-2.6-8.3-5.1-11.9C52.8,27.8,52.6,27.7,52.3,27.5
		L52.3,27.5L52.3,27.5z M31.4,8.9c-1.7,1.3-3,3-3.9,4.9c-0.4,1-0.8,1-1.7,0.5c-0.7-0.4-1.4-0.8-2.2-1c-0.6-0.2-1.3-0.1-1.9,0
		c-0.7,0.2-1.3,0.7-1.9,1.1c-0.9,0.6-0.8,1,0.1,1.4c1.3,0.6,2.6,1.2,4,1.7c3.9,1.4,8,1.5,12,1.5c4.7,0,9.3-0.9,13.6-3.1
		c0.5-0.3,1-0.7,1.6-1.1c-1.6-1.5-3.4-2.4-5.5-3c0.2,1.5-0.6,1.7-1.6,1.7c-0.7,0-1.3,0.2-2,0.3c-1,0.2-1.7,0.2-1.9-1.1
		c0-0.4-0.4-0.7-0.5-1.1c-0.5-1-1.1-1.3-2.2-0.9c-1.4,0.6-2.8,0.3-4-0.5C32.8,10,32.2,9.5,31.4,8.9C31.4,8.9,31.4,8.9,31.4,8.9z
		 M49.8,21.6c-9.8,3.6-19.4,3.8-29.2,0.3c0.1,1.6,0.7,2.5,1.8,3c1.1,0.5,2.2,1,3.4,1.3c4.9,1,9.9,1.2,14.9,0.6
		c2.4-0.3,4.8-0.7,6.9-2C48.7,24.2,49.5,23.2,49.8,21.6z"/>
	<path class="st0" d="M35,37.4c3.3-0.1,6.5-0.4,9.5-1.6c0.4-0.2,0.9-0.2,1.2-0.5c1-0.7,1.6-0.5,2.1,0.6c0.6,1,1.3,2,1.9,3
		c-4.7,2.5-9.6,3.5-14.8,3.7L35,37.4L35,37.4L35,37.4z"/>
</g>
</svg>
