<?xml version="1.0" encoding="utf-8"?>
<!-- Generator: Adobe Illustrator 27.4.1, SVG Export Plug-In . SVG Version: 6.00 Build 0)  -->
<svg version="1.1" id="图层_1" xmlns="http://www.w3.org/2000/svg" xmlns:xlink="http://www.w3.org/1999/xlink" x="0px" y="0px"
	 viewBox="0 0 72 72" style="enable-background:new 0 0 72 72;" xml:space="preserve">
<style type="text/css">
	.st0{fill:#A98467;}
</style>
<path class="st0" d="M46.8,41c6.9,3.1,11.9,8,14.8,14.9c1.4,3.4,2.1,6.9,2.2,10.6h-5.4c-0.2-7.6-3.3-13.7-9.5-18.1
	c-4.3-3-9-4.3-14.1-4c-12.8,0.8-21,11.6-20.8,22.1H8.2c0.6-11.9,6.4-20.1,17-25.4c-6.2-5-9.6-11.2-8.3-19.3
	c0.8-5.2,3.6-9.4,7.8-12.5c7.9-5.9,19.7-4.4,25.8,2.9C58.1,21.2,56.8,33.4,46.8,41L46.8,41L46.8,41z M36,11
	c-7.8-0.1-14.3,6.4-13.9,14.6c0.3,6.3,5.4,13.4,14.7,13.1c7.1-0.2,13.1-6.4,13.1-13.7C49.8,17,43.8,10.9,36,11z"/>
<path class="st0" d="M52.6,61.1v5.4h-11v-5.4C41.7,61.1,52.6,61.1,52.6,61.1z"/>
</svg>
