<?xml version="1.0" encoding="utf-8"?>
<!-- Generator: Adobe Illustrator 27.4.1, SVG Export Plug-In . SVG Version: 6.00 Build 0)  -->
<svg version="1.1" id="图层_1" xmlns="http://www.w3.org/2000/svg" xmlns:xlink="http://www.w3.org/1999/xlink" x="0px" y="0px"
	 viewBox="0 0 72 72" style="enable-background:new 0 0 72 72;" xml:space="preserve">
<style type="text/css">
	.st0{fill:#8C5A3B;}
</style>
<path class="st0" d="M67.5,13.5c-0.1,3.5-0.9,6.9-2,10.1c-0.2,0.6-0.2,1.1,0.2,1.6C68,28,68,31,66.3,34c-1.3,2.3-3,4.4-4.5,6.5
	c-0.4,0.6-0.5,1.1-0.2,1.8c1.4,3.8,0.7,7.2-2.1,10.2c-2.2,2.3-4.5,4.5-6.7,6.7c-3,2.9-6.4,3.7-10.3,2.3c-0.8-0.3-1.4-0.2-2.1,0.3
	c-1.8,1.4-3.6,2.7-5.5,3.9c-3,2-6.8,2.3-9.8-0.3c-0.2-0.2-0.7-0.2-1-0.1c-3.3,1.1-6.7,1.7-10.1,2c-4.4,0.5-8.3-2.2-9.2-6.3
	c-0.6-2.5,0.4-4.7,2.2-6.4c1.9-1.8,4.1-3.4,6.1-5.1c0.1-0.1,0.2-0.1,0.3-0.2c1.7-1,2.4-2.2,1.9-4.3c-0.6-2.3,0.4-4.4,2-6.1
	c1.1-1.2,2.2-2.3,3.4-3.4c0.6-0.6,0.7-1.1,0.5-1.9c-0.8-2.5-1.1-5-0.1-7.6c1.4-3.8,5.1-6.2,9.1-5.7c1.3,0.1,2.6,0.5,4,0.6
	c0.5,0.1,1.1-0.1,1.4-0.4c1.1-1,2.1-2.1,3.2-3.1c2.3-2.1,5.1-2.8,8.1-2.1c0.8,0.2,1.2,0,1.7-0.6c1.8-2.4,3.7-4.7,5.6-7
	c2.5-2.9,5.4-3.9,8.4-2.7c3,1.1,5.1,4.3,5.2,7.8L67.5,13.5L67.5,13.5L67.5,13.5z M29.8,25.5c-3,0-4.2,1.3-4.3,4.2
	c0,2.1,0.7,4,1.9,5.6c4.7,6.5,9.5,13.1,14.3,19.5c2.2,2.9,5.2,3,7.8,0.5c1.9-1.8,3.8-3.7,5.6-5.6c0.6-0.6,1.2-1.4,1.5-2.2
	c0.8-1.8,0.2-4.1-1.4-5.3c-3.3-2.6-6.6-5-9.9-7.5c-3.3-2.4-6.6-4.9-10-7.2C33.7,26.2,31.9,25.4,29.8,25.5
	C29.8,25.5,29.8,25.5,29.8,25.5z M39.4,23.9c0.4,0.3,0.7,0.5,1,0.7c3.1,2.3,6.3,4.5,9.4,6.8c2.4,1.8,4.8,3.7,7.2,5.6
	c0.4,0.3,0.8,0.7,1.2,0.1c1.3-1.8,2.7-3.6,3.9-5.5c0.9-1.4,0.4-2.8-1-3.7c-0.8-0.5-1.5-1-2.4-1.4c-4.1-2-8.3-3.9-12.4-5.8
	C45,20,43.7,20,42.6,20.8C41.5,21.8,40.5,22.8,39.4,23.9L39.4,23.9L39.4,23.9z M23.7,39.3c-0.7,0.8-1.4,1.6-2.1,2.4
	c-1.5,1.4-1.8,3.1-0.9,4.9c2.2,4.6,4.5,9.3,6.8,13.9c1.1,2.2,2.5,2.5,4.6,1.1c1.8-1.2,3.6-2.5,5.4-3.8
	C32.9,51.7,28.4,45.6,23.7,39.3L23.7,39.3L23.7,39.3z M60.8,21.8c0.3-1.4,0.7-2.6,0.8-4c0.2-2,0.4-4,0.4-6.1c0-1-0.7-1.7-1.7-2
	c-1-0.3-1.7,0.2-2.4,1c-1.4,1.8-2.8,3.6-4.2,5.4c-0.4,0.5-0.8,1-1.3,1.5C55.3,19.1,58,20.4,60.8,21.8L60.8,21.8L60.8,21.8z
	 M21.7,60.8c-1.4-2.9-2.6-5.6-4-8.4c-2.5,2-4.9,3.9-7.2,5.8c-1,0.8-1.1,2.2-0.1,3c0.6,0.5,1.5,0.9,2.3,0.9
	C15.7,62.3,18.7,61.7,21.7,60.8L21.7,60.8L21.7,60.8z"/>
</svg>
