<?xml version="1.0" encoding="utf-8"?>
<!-- Generator: Adobe Illustrator 27.4.1, SVG Export Plug-In . SVG Version: 6.00 Build 0)  -->
<svg version="1.1" id="图层_1" xmlns="http://www.w3.org/2000/svg" xmlns:xlink="http://www.w3.org/1999/xlink" x="0px" y="0px"
	 viewBox="0 0 72 72" style="enable-background:new 0 0 72 72;" xml:space="preserve">
<style type="text/css">
	.st0{fill:#A98467;}
</style>
<path class="st0" d="M61.3,5.3v61.4c-0.3,0-0.5,0.1-0.8,0.1c-13.9,0-27.7,0-41.6,0c-3.7,0-6.6-1.9-7.7-5c-0.3-0.9-0.5-1.9-0.5-2.9
	c0-15.2,0-30.4,0-45.7c0-4.4,3-7.4,7.7-7.8c0.4,0,0.7,0,1.1,0c13.7,0,27.4,0,41.1,0C60.5,5.3,61.3,5.3,61.3,5.3z M56.3,10.4H18.9
	c-2.4,0-3.1,0.8-3.1,3.2v38c3-0.1,6-0.2,8.9-0.2c10.1,0,20.3,0,30.4,0h1.2L56.3,10.4L56.3,10.4L56.3,10.4z M56.3,56.5H18.7
	c-0.3,0-0.6,0-0.8,0c-1.1,0.1-1.8,0.8-2,1.9c-0.4,1.9,0.7,3.2,2.7,3.2h36.9c0.3,0,0.5-0.1,0.8-0.1C56.3,61.5,56.3,56.5,56.3,56.5z"
	/>
<path class="st0" d="M23.1,15.1c1.9,1.9,3.8,3.7,5.7,5.5c2.1,2.1,4.3,4.3,6.4,6.5c0.4,0.4,0.7,0.5,1.2,0.1c1-0.8,1.3-1.6,1.1-2.9
	c-1.3-6.4,4.7-11,9.3-10.7c1.7,0.1,3.1,0.7,4.4,2.1c-1.2,0.5-2.4,1-3.5,1.5c0,0.1,0,0.1,0,0.2h4.8c0.9,1.7,1.1,3.6,0.6,5.6
	c-1.2,4.9-7,8-11.2,6.4c-1.2-0.5-1.5,0.9-2.2,1.4c-0.1,0.1,0.2,0.9,0.5,1.2c3.9,3.9,7.7,7.8,11.7,11.6c0.7,0.7,0.8,1.2,0,1.8
	c-0.9,0.7-1.6,1.6-2.5,2.5c-3.6-3.6-7.2-7.2-10.9-10.9c-1.7,1.9-3.3,3.6-4.9,5.4c-1-1.1-1.7-1.9-2.5-2.8c-2.9,3-5.6,5.8-8.4,8.7
	c-1.3-1.4-2.4-2.6-3.5-3.7c2.6-2.7,5.3-5.4,8.2-8.3c-0.3-0.4-0.6-0.7-0.9-1c-1.6-1.6-3.3-3.2-4.9-4.8c-3.7-3.5-3.9-9.3-0.6-13.2
	C21.6,16.7,22.3,16,23.1,15.1C23.1,15.2,23.1,15.1,23.1,15.1z M23.8,23.2c-0.2,1.7,0.1,2.8,1.6,4.2c2.4,2.5,4.9,4.9,7.4,7.4
	c0.2,0.2,0.4,0.3,0.7,0.5c0.5-0.4,0.9-0.9,1.2-1.2C30.9,30.4,27.4,26.9,23.8,23.2L23.8,23.2L23.8,23.2z M44.2,24.9
	c1.9,0,3.7-1.5,4-3.6c0.3-1.5-0.6-2.5-2.2-2.5c-2,0-3.9,1.9-3.9,3.9C42,24.1,42.8,24.9,44.2,24.9z"/>
</svg>
