<?xml version="1.0" encoding="utf-8"?>
<!-- Generator: Adobe Illustrator 27.4.1, SVG Export Plug-In . SVG Version: 6.00 Build 0)  -->
<svg version="1.1" id="_图层_2" xmlns="http://www.w3.org/2000/svg" xmlns:xlink="http://www.w3.org/1999/xlink" x="0px" y="0px"
	 viewBox="0 0 72 72" fill="#A98467" style="enable-background:new 0 0 72 72;" xml:space="preserve">
<path d="M10.1,55.1c-0.7,0-1.3,0-2,0C6.6,55,5.5,54,5.5,52.8c0-1.3,1-2.3,2.6-2.4c0.7-0.1,1.4,0,2.1,0v-3.1H15v3
	c1,0.1,2,0.1,2.9,0.3c1.1,0.2,1.9,1.1,1.9,2.1c0,1-0.7,2-1.9,2.3c-0.4,0.1-0.9,0.2-1.4,0.2c-0.5,0-0.9,0-1.4,0c0,1.1-0.1,2.2,0,3.2
	c0.3,2,1.9,3.2,4,3.2c2.9,0,5.8,0,8.7,0c8.7,0,17.4,0,26.1,0c2.8,0,4.3-1.5,4.3-4.3c0-14.1,0-28.3,0-42.4c0-2.6-1.4-4.6-4.5-4.6
	c-11.4,0.1-22.9,0-34.3,0c-2.5,0-4.2,1.4-4.4,3.5c-0.1,0.9,0,1.9,0,2.8c1,0.1,1.9,0.1,2.8,0.3c1.2,0.2,2,1.1,2,2.2
	c0,1-0.8,2-1.9,2.3c-0.4,0.1-0.8,0.2-1.3,0.2c-2.7,0-5.4,0-8.1,0c-0.5,0-0.9-0.1-1.4-0.2C6.2,21,5.5,20,5.5,19c0-1,0.8-1.9,1.8-2.1
	c0.9-0.2,1.9-0.2,3-0.3c0-0.5,0-1,0-1.6c0-5.7,3.3-9.2,9-9.5c0.3,0,0.6,0,0.9,0c11.1,0,22.3,0,33.4,0c3.9,0,6.8,1.6,8.6,5.1
	c0.1,0.2,0.1,0.3,0.2,0.5c0.6,1.4,1.3,2.5,2.4,3.5c1,0.9,1.5,2.1,1.5,3.5c0,1.8,0,3.7,0,5.5c0,1.8-0.8,3.2-2.5,4
	c-0.8,0.3-0.6,0.9-0.7,1.5c-0.1,0.6,0.2,0.8,0.7,1c1.7,0.8,2.5,2.2,2.5,4c0.1,1.9,0.1,3.7,0,5.6c-0.1,1.8-0.8,3.2-2.5,3.9
	c-0.8,0.3-0.7,0.9-0.7,1.4c-0.1,0.6,0.2,0.9,0.7,1.1c1.7,0.8,2.4,2.2,2.5,3.9c0.1,1.9,0,3.8,0,5.7c0,2-1.1,3.3-3,4.1
	c-0.3,0.1-0.7,0.4-0.8,0.6c-1.6,4-4.6,6-8.7,6c-11.5,0.1-23,0.1-34.5,0c-4.5,0-7.9-2.8-8.7-6.8C10.3,58.1,10.3,56.7,10.1,55.1
	L10.1,55.1z"/>
<path d="M37.4,32.7c-3.1,0-6.1,0-9.2,0c-2.6,0-3.5-0.9-3.5-3.5c0-3,0-6.1,0-9.1c0-2.4,1-3.4,3.4-3.4c6.2,0,12.5,0,18.7,0
	c2.6,0,3.5,0.9,3.5,3.5c0,3,0,6.1,0,9.1c0,2.4-1,3.4-3.4,3.4C43.7,32.7,40.6,32.7,37.4,32.7L37.4,32.7z M45.4,27.9v-6.3H29.5v6.3
	H45.4z"/>
<path d="M10.3,27.8v-3.1H15v3.1c1,0.1,1.9,0.1,2.8,0.3c1.2,0.2,2,1.1,2,2.2c0,1-0.8,2-1.9,2.3c-0.4,0.1-0.8,0.2-1.2,0.2
	c-2.8,0-5.5,0-8.3,0c-0.5,0-0.9-0.1-1.4-0.2c-0.9-0.3-1.6-1.3-1.6-2.2c0-1,0.7-2,1.8-2.2C8.2,27.9,9.2,27.9,10.3,27.8z"/>
<path d="M10.2,39v-3H15v3c1,0.1,2,0.1,2.9,0.3c1.1,0.2,1.9,1.2,1.9,2.2c0,1-0.8,1.9-1.9,2.2c-0.4,0.1-0.8,0.2-1.3,0.2
	c-2.7,0-5.5,0-8.2,0c-0.4,0-0.9-0.1-1.3-0.2c-1.1-0.3-1.8-1.3-1.7-2.3c0-1,0.8-1.9,1.8-2.1C8.2,39.1,9.2,39.1,10.2,39L10.2,39z"/>
</svg>
