<?xml version="1.0" encoding="utf-8"?>
<!-- Generator: Adobe Illustrator 27.4.1, SVG Export Plug-In . SVG Version: 6.00 Build 0)  -->
<svg version="1.1" id="图层_1" xmlns="http://www.w3.org/2000/svg" xmlns:xlink="http://www.w3.org/1999/xlink" x="0px" y="0px"
	 viewBox="0 0 72 72" style="enable-background:new 0 0 72 72;" xml:space="preserve">
<style type="text/css">
	.st0{fill:#8C5A3B;}
</style>
<path class="st0" d="M25.9,16c4.8,0,9.6,0,14.3,0c0.6,0,0.9-0.1,1.2-0.7c1.2-2.5,3.3-3.9,6-3.9c2.8,0,4.8,1.3,6,3.8
	c0.3,0.6,0.6,0.8,1.2,0.7c1.9,0,3.8,0,5.8,0c1.9,0,3,0.9,3,2.3c0,1.4-1.2,2.2-3,2.3c-2,0-4,0-5.9,0c-0.3,0-0.7,0.2-0.8,0.5
	c-1.4,2.6-3.4,4.1-6.4,4c-2.8-0.1-4.8-1.5-6.1-4c-0.1-0.3-0.6-0.5-0.9-0.5c-9.3,0-18.7,0-28,0c-0.7,0-1.3,0-2-0.1
	c-1-0.2-1.8-1.1-1.8-2.1c0-1,0.7-1.9,1.6-2.2c0.5-0.1,1.1-0.2,1.6-0.2C16.5,16,21.2,16,25.9,16z M49.8,18.4c0-1.4-1-2.4-2.4-2.4
	c-1.3,0-2.2,1-2.3,2.3c0,1.2,1.1,2.3,2.3,2.3C48.8,20.7,49.8,19.7,49.8,18.4z"/>
<path class="st0" d="M21.3,52.7c3.2,0,6.4,0,9.6,0c0.6,0,1-0.2,1.3-0.7c1.3-2.5,3.4-3.9,6.2-3.8c2.8,0.1,4.8,1.5,6,4
	c0.1,0.3,0.6,0.6,0.9,0.6c5,0,10,0,15,0c0.6,0,1.1,0.1,1.7,0.3c0.9,0.3,1.5,1.2,1.5,2c0,0.9-0.5,1.7-1.4,2c-0.5,0.2-1.1,0.3-1.7,0.3
	c-5,0-9.9,0-14.9,0c-0.6,0-1,0.1-1.3,0.8c-1.2,2.5-3.3,3.8-6.1,3.8c-2.7,0-4.7-1.4-6-3.8c-0.3-0.6-0.6-0.7-1.2-0.7
	c-6.4,0-12.8,0-19.2,0c-0.6,0-1.1-0.1-1.7-0.2c-1-0.3-1.7-1.3-1.6-2.2c0.1-1,0.8-1.8,1.8-2c0.6-0.1,1.2-0.2,1.8-0.2
	C15.2,52.7,18.3,52.7,21.3,52.7L21.3,52.7L21.3,52.7z M38.3,57.3c1.3,0,2.3-1,2.3-2.3c0-1.3-1-2.3-2.3-2.3c-1.3,0-2.3,1-2.3,2.3
	C36,56.4,37,57.3,38.3,57.3z"/>
<path class="st0" d="M48.6,39c-3.9,0-7.7,0-11.6,0c-0.9,0-1.5,0.1-2,1.1c-1.3,2.4-3.5,3.7-6.3,3.5c-2.6-0.2-4.5-1.6-5.7-3.9
	c-0.3-0.6-0.6-0.7-1.2-0.7c-3.5,0-6.9,0-10.4,0c-0.5,0-1-0.1-1.4-0.2c-1-0.3-1.6-1.4-1.5-2.4c0.1-1,0.9-1.8,2-1.9
	c0.5-0.1,1-0.1,1.5-0.1c3.3,0,6.6,0,9.9,0c0.6,0,0.9-0.1,1.1-0.7c1.2-2.4,3.1-3.8,5.7-3.9c2.7-0.2,4.9,1,6.2,3.4
	c0.6,1.1,1.2,1.2,2.3,1.2c7.7,0,15.3,0,23,0c0.4,0,0.7,0,1.1,0c1.3,0.1,2.3,1.1,2.2,2.3c0,1.1-1,2.1-2.2,2.2c-0.7,0.1-1.5,0-2.2,0
	C55.6,39,52.1,39,48.6,39L48.6,39L48.6,39z M29.1,34.4c-1.3,0-2.2,0.9-2.3,2.2c0,1.3,0.8,2.3,2.2,2.4c1.3,0.1,2.3-0.8,2.4-2.1
	C31.5,35.5,30.5,34.4,29.1,34.4L29.1,34.4z"/>
</svg>
