<?xml version="1.0" encoding="utf-8"?>
<!-- Generator: Adobe Illustrator 27.4.1, SVG Export Plug-In . SVG Version: 6.00 Build 0)  -->
<svg version="1.1" id="图层_1" xmlns="http://www.w3.org/2000/svg" xmlns:xlink="http://www.w3.org/1999/xlink" x="0px" y="0px"
	 viewBox="0 0 24 24" style="enable-background:new 0 0 24 24;" xml:space="preserve">
<style type="text/css">
	.st0{fill:#FFFFFF;}
</style>
<path class="st0" d="M5.5,12c0-1.9,0-3.8,0-5.7c0-1.5,0.8-2.4,2.3-2.4c0.2,0,0.5,0,0.8,0c2.5,0,5,0,7.5,0c0.8,0,1.5,0.2,2,0.8
	c0.4,0.5,0.5,1.1,0.5,1.7c0,2.4,0,5,0,7.5c0,1.3,0,2.5,0,3.8c0,0.7-0.2,1.4-0.8,2c-0.5,0.4-1.1,0.6-1.6,0.6c-2.8,0-5.5,0-8.3,0
	c-1.4-0.1-2.3-1.1-2.3-2.4C5.5,15.8,5.5,13.9,5.5,12z M6.7,11.9c0,1.9,0,3.8,0,5.8c0,0.8,0.4,1.2,1.2,1.2c2.8,0,5.5,0,8.3,0
	c0.7,0,1.1-0.4,1.1-1.1c0-3.8,0-7.6,0-11.5c0-0.1,0-0.2,0-0.2c-0.1-0.6-0.5-1-1.1-1c-2.8,0-5.7,0-8.5,0C7,5.1,6.7,5.5,6.7,6.1
	C6.7,8.1,6.7,10,6.7,11.9L6.7,11.9z"/>
<path class="st0" d="M12,11.1c-1,0-1.9,0-2.8,0c-0.8,0-1.2-0.4-1.2-1.2c0-0.7,0-1.4,0-2c0-0.8,0.4-1.2,1.2-1.2c1.9,0,3.8,0,5.7,0
	c0.8,0,1.2,0.4,1.2,1.2c0,0.7,0,1.4,0,2.1c0,0.7-0.4,1.1-1.1,1.1C13.9,11.1,13,11.1,12,11.1L12,11.1z M9.2,9.9h5.7v-2H9.2V9.9z"/>
<path class="st0" d="M16.1,14.9c0,0.4,0,0.9,0,1.3c0,0.6-0.4,1-0.9,1.1c-0.6,0.1-1.1-0.4-1.1-1c0-0.9,0-1.9,0-2.8
	c0-0.4,0.2-0.7,0.5-0.9c0.3-0.2,0.6-0.2,1-0.1c0.4,0.2,0.6,0.6,0.6,1C16.1,13.9,16.1,14.4,16.1,14.9L16.1,14.9z"/>
<path class="st0" d="M12,17.2c-0.6,0-1.1-0.4-1.1-1s0.4-1.1,1-1.1c0.6,0,1.1,0.5,1.1,1C13.1,16.8,12.6,17.2,12,17.2z"/>
<path class="st0" d="M10.9,13.3c0-0.6,0.5-1.1,1-1c0.6,0,1.1,0.5,1.1,1.1c0,0.6-0.5,1-1.1,1C11.4,14.4,10.9,13.9,10.9,13.3z"/>
<path class="st0" d="M8.9,17.2c-0.5,0-1-0.4-1-1c0-0.6,0.4-1.1,1-1.1c0.6,0,1.1,0.5,1.1,1C10,16.8,9.5,17.2,8.9,17.2L8.9,17.2z"/>
<path class="st0" d="M8.9,14.4c-0.6,0-1-0.5-1-1.1c0-0.6,0.5-1,1-1c0.6,0,1.1,0.5,1.1,1.1C10,13.9,9.5,14.4,8.9,14.4z"/>
</svg>
