<?xml version="1.0" encoding="utf-8"?>
<svg xmlns="http://www.w3.org/2000/svg"  viewBox="0 0 24 24" width="24px" height="24px" fill="#8c5a3b">
<path class="st0" d="M16.2,9.9c0-0.4,0.3-0.7,0.7-0.7h1.3c0.4,0,0.7,0.3,0.7,0.7v1.3c0,0.4-0.3,0.7-0.7,0.7h-1.3
	c-0.4,0-0.7-0.3-0.7-0.7V9.9z M12.2,9.9c0-0.4,0.3-0.7,0.7-0.7h1.3c0.4,0,0.7,0.3,0.7,0.7v1.3c0,0.4-0.3,0.7-0.7,0.7h-1.3
	c-0.4,0-0.7-0.3-0.7-0.7V9.9z M5.6,13.8c0-0.4,0.3-0.7,0.7-0.7h1.3c0.4,0,0.7,0.3,0.7,0.7v1.3c0,0.4-0.3,0.7-0.7,0.7H6.2
	c-0.4,0-0.7-0.3-0.7-0.7V13.8z M9.5,13.8c0-0.4,0.3-0.7,0.7-0.7h1.3c0.4,0,0.7,0.3,0.7,0.7v1.3c0,0.4-0.3,0.7-0.7,0.7h-1.3
	c-0.4,0-0.7-0.3-0.7-0.7V13.8z"/>
<path class="st0" d="M6.2,1.2c0.4,0,0.7,0.3,0.7,0.7v0.7h10.6V1.9c0-0.4,0.3-0.7,0.7-0.7s0.7,0.3,0.7,0.7v0.7h1.3
	c1.5,0,2.7,1.2,2.7,2.7v14.6c0,1.5-1.2,2.7-2.7,2.7H4.2c-1.5,0-2.7-1.2-2.7-2.7V5.2c0-1.5,1.2-2.7,2.7-2.7h1.3V1.9
	C5.6,1.5,5.9,1.2,6.2,1.2 M2.9,6.6v13.3c0,0.7,0.6,1.3,1.3,1.3h15.9c0.7,0,1.3-0.6,1.3-1.3V6.6H2.9z"/>
</svg>
