<svg xmlns="http://www.w3.org/2000/svg" viewBox="0 0 24 24" fill="#8c5a3b">
<path class="st0" d="M12,2.1c1.9,0,3.9,0,5.8,0c0.4,0,0.9,0,1.3,0.1c1.5,0.3,2.6,1.5,2.7,3c0,0.4,0.1,0.8,0.1,1.3
	c0,3.8,0,7.5,0,11.3c0,0.6,0,1.1-0.2,1.7c-0.4,1.4-1.5,2.2-2.9,2.4c-0.4,0.1-0.9,0.1-1.3,0.1c-3.8,0-7.6,0-11.4,0
	c-1.1,0-2.1-0.3-2.9-1c-0.8-0.8-1.1-1.8-1.1-2.9c0-4,0-8.1,0-12.1c0-1.8,1-3.2,2.6-3.6c0.5-0.1,1-0.2,1.5-0.2C8.1,2,10.1,2.1,12,2.1
	L12,2.1z M20.3,8.2H3.7v0.4c0,3.2,0,6.4,0,9.6c0,1.2,0.9,2.1,2.1,2.1c4.1,0,8.3,0,12.4,0c0.2,0,0.4,0,0.6-0.1c0.9-0.2,1.4-1,1.4-2
	c0-3.3,0-6.5,0-9.8L20.3,8.2L20.3,8.2z M20.3,6.5c0-0.3,0-0.6,0-0.9c-0.1-1.1-0.9-1.8-2-1.8c-4.2,0-8.3,0-12.5,0
	c-1.6,0-2.4,1.1-2.1,2.7L20.3,6.5L20.3,6.5z"/>
<path class="st0" d="M5.9,11.7c0-0.7,0.6-1.4,1.4-1.4c0.7,0,1.4,0.7,1.4,1.4c0,0.7-0.7,1.4-1.4,1.4C6.5,13.1,5.9,12.5,5.9,11.7
	L5.9,11.7z"/>
<path class="st0" d="M13.4,11.7c0,0.7-0.6,1.4-1.4,1.4c-0.7,0-1.4-0.6-1.4-1.3c0-0.8,0.6-1.4,1.3-1.4C12.7,10.3,13.4,11,13.4,11.7z"
	/>
<path class="st0" d="M15.3,11.7c0-0.7,0.6-1.4,1.3-1.4c0.7,0,1.4,0.7,1.4,1.4c0,0.7-0.7,1.4-1.4,1.4C15.9,13.1,15.3,12.5,15.3,11.7
	L15.3,11.7z"/>
<path class="st0" d="M7.3,18.1c-0.7,0-1.4-0.7-1.4-1.4c0-0.7,0.6-1.3,1.4-1.3c0.7,0,1.4,0.7,1.4,1.4C8.7,17.5,8,18.1,7.3,18.1
	L7.3,18.1z"/>
<path class="st0" d="M13.4,16.7c0,0.7-0.6,1.4-1.4,1.4c-0.7,0-1.4-0.6-1.4-1.3c0-0.8,0.6-1.4,1.3-1.4C12.7,15.3,13.4,16,13.4,16.7z"
	/>
</svg>
