<?xml version="1.0" encoding="utf-8"?>
<!-- Generator: Adobe Illustrator 27.4.1, SVG Export Plug-In . SVG Version: 6.00 Build 0)  -->
<svg version="1.1" id="图层_1" xmlns="http://www.w3.org/2000/svg" xmlns:xlink="http://www.w3.org/1999/xlink" x="0px" y="0px"
	 viewBox="0 0 24 24" style="enable-background:new 0 0 24 24;" xml:space="preserve">
<style type="text/css">
	.st0{fill:#8C5A3B;}
</style>
<path class="st0" d="M12.1,21c-2.1,0-4.2,0-6.3,0c-1.2,0-2.2-0.5-2.8-1.6c-0.2-0.3-0.4-0.8-0.4-1.2c0-3.2-0.1-6.4,0-9.6
	c0-1.7,1.4-2.8,3.1-2.8c0.2,0,0.4,0,0.5,0c1,0.3,1.6-0.2,2-1.1C8.7,3.4,9.7,2.9,11.1,3c0.8,0,1.6,0,2.4,0c1,0,1.7,0.4,2.1,1.3
	c0.2,0.4,0.5,0.8,0.7,1.2c0.2,0.3,0.4,0.4,0.7,0.4c0.5,0,1,0,1.5,0c1.6,0.1,2.9,1.2,3,2.9c0.1,3.1,0.1,6.3,0,9.4
	c0,1.7-1.3,2.9-3,2.9C16.3,21,14.2,21,12.1,21L12.1,21z M7.7,12.9c0,2.3,1.8,4.3,4.2,4.3c2.3,0,4.3-1.9,4.4-4.1
	c0-2.4-1.9-4.4-4.2-4.4C9.7,8.7,7.8,10.5,7.7,12.9L7.7,12.9z"/>
<path class="st0" d="M12,15.8c-1.6,0-2.9-1.3-2.9-2.9c0-1.5,1.3-2.8,2.8-2.8c1.6,0,2.9,1.3,2.9,2.9C14.9,14.5,13.6,15.8,12,15.8z"/>
</svg>
