<?xml version="1.0" encoding="utf-8"?>
<!-- Generator: Adobe Illustrator 27.4.1, SVG Export Plug-In . SVG Version: 6.00 Build 0)  -->
<svg version="1.1" id="图层_1" xmlns="http://www.w3.org/2000/svg" xmlns:xlink="http://www.w3.org/1999/xlink" x="0px" y="0px"
	 viewBox="0 0 100 100" style="enable-background:new 0 0 100 100;" xml:space="preserve">
<style type="text/css">
	.st0{fill:#d4a373;}
</style>
<path class="st0" d="M49.5,23c3,0,6-0.1,9,0c2.8,0.1,4.6,1.9,4.5,4.7c-0.1,3.7-0.5,7.4-0.8,11.1c-0.6,6.1-1.3,12.2-1.9,18.4
	c-0.2,2-0.5,4-0.8,6.1c-0.2,1.5-0.4,1.5-1.9,1.5c-4.5-0.1-9.1,0-13.6-0.1c-0.4,0-0.8,0-1.2,0c-1.1,0.1-1.7-0.3-1.8-1.5
	c-0.3-3.3-0.7-6.7-1.1-10c-0.4-3.1-0.8-6.3-1.1-9.4c-0.1-1.3,0-2.7-0.2-4c-0.2-2.1-0.6-4.2-0.8-6.3c-0.2-1.9-0.4-3.8-0.4-5.7
	c0-2.7,1.6-4.6,4.3-4.7C44.1,22.9,46.8,23,49.5,23L49.5,23L49.5,23z"/>
<path class="st0" d="M69.1,64.7c-1,0-1.9,0-2.9,0c-1,0-1.7-0.3-1.5-1.6c0.4-3.5,0.9-7,1.3-10.5c0.3-3.1,0.6-6.2,1-9.3
	c0.4-2.9,0.8-5.9,1.4-8.7c0.7-3.2,3.7-4.5,6.7-2.7c2.5,1.5,5.1,2.8,7.6,4.3c2.7,1.6,3.3,3.7,2,6.5c-3.4,6.9-6.9,13.7-10.4,20.6
	c-0.6,1.1-1.4,1.3-2.4,1.3C70.9,64.7,70,64.6,69.1,64.7L69.1,64.7z"/>
<path class="st0" d="M30.8,64.6c-3.4,1-4.7-1.1-6-3.7c-2.3-4.8-4.8-9.4-7.3-14.1c-0.7-1.3-1.4-2.6-2-3.9c-1.3-2.6-0.7-4.9,1.7-6.4
	c2.8-1.8,5.7-3.4,8.7-5c2.7-1.4,5.4-0.1,6,2.9c0.7,3.6,1.1,7.3,1.6,11c0.5,3.8,0.9,7.7,1.4,11.5c0.2,2,0.5,4,0.6,6
	c0.1,1.2-0.9,1.5-1.8,1.6C32.7,64.7,31.7,64.6,30.8,64.6L30.8,64.6z"/>
<path class="st0" d="M12.2,53.5c2.1-0.1,3.6,0.9,4.5,2.6c1.2,2.3,2.5,4.6,3.8,6.9c0.6,1.1,0.3,2-0.7,2.7c-2.6,1.9-5.2,3.8-7.9,5.7
	c-2.4,1.6-4.9,1.1-6.5-1.2c-0.5-0.8-1-1.6-1.4-2.5c-1-2.3-1-4.4,0.6-6.6c1.3-1.7,2.3-3.5,3.5-5.2C9,54.4,10.3,53.3,12.2,53.5
	L12.2,53.5z"/>
<path class="st0" d="M87.9,53.5c1.8-0.1,3.2,0.7,4.2,2.1c1.5,2.2,3,4.4,4.2,6.8c0.5,1,0.7,2.5,0.4,3.6c-0.3,1.5-1.1,3-1.9,4.3
	c-1.4,2.2-3.9,2.8-6.1,1.4c-3-2-5.9-4.2-8.7-6.5c-0.3-0.3-0.6-1.2-0.4-1.5c1.8-3,3.5-6.1,5.5-9C85.6,53.9,87.8,53.4,87.9,53.5
	L87.9,53.5z"/>
</svg>
