<?xml version="1.0" encoding="utf-8"?>
<!-- Generator: Adobe Illustrator 27.4.1, SVG Export Plug-In . SVG Version: 6.00 Build 0)  -->
<svg version="1.1" id="图层_1" xmlns="http://www.w3.org/2000/svg" xmlns:xlink="http://www.w3.org/1999/xlink" x="0px" y="0px"
	 viewBox="0 0 48 48" style="enable-background:new 0 0 48 48;" xml:space="preserve">
<style type="text/css">
	.st0{fill:#FFFFFF;}
</style>
<path class="st0" d="M34.7,7.1c-1.6,0-3.2,0.6-4.4,1.8L10.5,28.6C10.2,29,9.9,29.5,9.8,30l-2.6,9.3C6.9,40,7.3,40.7,8,40.9
	c0.2,0.1,0.5,0.1,0.7,0l9.3-2.6c0,0,0,0,0,0c0.5-0.1,1-0.4,1.3-0.8l19.7-19.7c2.4-2.4,2.4-6.4,0-8.8C37.9,7.7,36.3,7.1,34.7,7.1z
	 M34.7,9.7c0.9,0,1.8,0.4,2.5,1.1c0,0,0,0,0,0c1.4,1.4,1.4,3.6,0,5l-1.7,1.7l-5-5l1.7-1.7C32.9,10.1,33.8,9.7,34.7,9.7z M28.6,14.4
	l5,5L17.5,35.6c-0.1,0.1-0.1,0.1-0.2,0.1l-7,2l2-7c0,0,0,0,0,0c0-0.1,0.1-0.1,0.1-0.2L28.6,14.4z"/>
</svg>
