<?xml version="1.0" encoding="utf-8"?>
<!-- Generator: Adobe Illustrator 27.4.1, SVG Export Plug-In . SVG Version: 6.00 Build 0)  -->
<svg version="1.1" id="图层_1" xmlns="http://www.w3.org/2000/svg" xmlns:xlink="http://www.w3.org/1999/xlink" x="0px" y="0px"
	 viewBox="0 0 24 24" style="enable-background:new 0 0 24 24;" xml:space="preserve">
<style type="text/css">
	.st0{fill:#8C5A3B;}
</style>
<path class="st0" d="M21.8,12c-0.1,5.3-4.2,9.8-9.9,9.8c-5.4,0-9.9-4.4-9.8-10c0.1-5.4,4.5-9.6,9.7-9.6C17.5,2.1,21.8,6.7,21.8,12z
	 M11.7,20.3c4.6,0.3,8.5-3.4,8.7-8c0.2-4.6-3.4-8.6-8.1-8.7c-4.7-0.1-8.4,3.5-8.6,7.9C3.3,16.6,7.5,20.4,11.7,20.3z"/>
<path class="st0" d="M12.7,10.3c0,0.7,0,1.5,0,2.2c0,0.4-0.1,0.7-0.5,0.8c-0.4,0.2-0.8,0-0.9-0.4c0-0.2-0.1-0.3-0.1-0.5
	c0-1.5,0-3,0-4.4c0-0.2,0-0.3,0.1-0.5c0.1-0.3,0.4-0.5,0.6-0.5c0.3,0,0.6,0.2,0.7,0.5c0.1,0.2,0.1,0.4,0.1,0.5
	C12.7,8.8,12.7,9.6,12.7,10.3L12.7,10.3z"/>
<path class="st0" d="M11,16c0-0.5,0.5-1,1-1c0.5,0,1,0.5,1,1c0,0.5-0.5,1-1,1C11.5,16.9,11,16.5,11,16L11,16z"/>
</svg>
