<?xml version="1.0" encoding="utf-8"?>
<!-- Generator: Adobe Illustrator 27.4.1, SVG Export Plug-In . SVG Version: 6.00 Build 0)  -->
<svg version="1.1" id="图层_1" xmlns="http://www.w3.org/2000/svg" xmlns:xlink="http://www.w3.org/1999/xlink" x="0px" y="0px"
	 viewBox="0 0 16 16" style="enable-background:new 0 0 16 16;" xml:space="preserve">
<style type="text/css">
	.st0{fill:#8C5A3B;}
</style>
<path class="st0" d="M3,1.8c0.1,0,0.3,0,0.4,0.1l0.5,0.5l0.5-0.5c0.2-0.2,0.4-0.2,0.6,0c0,0,0,0,0,0l0.5,0.5l0.5-0.5
	c0.2-0.2,0.4-0.2,0.6,0c0,0,0,0,0,0l0.5,0.5l0.5-0.5c0.2-0.2,0.4-0.2,0.6,0c0,0,0,0,0,0l0.5,0.5l0.5-0.5c0.2-0.2,0.4-0.2,0.6,0
	c0,0,0,0,0,0l0.5,0.5L11,1.9c0.2-0.2,0.4-0.2,0.6,0c0,0,0,0,0,0l0.5,0.5l0.5-0.5c0.2-0.2,0.4-0.2,0.6,0c0,0,0.1,0.1,0.1,0.1l0.4,0.8
	c0,0.1,0,0.1,0,0.2V13c0,0.1,0,0.1,0,0.2L13.3,14c-0.1,0.2-0.4,0.3-0.6,0.2c0,0-0.1,0-0.1-0.1l-0.5-0.5l-0.5,0.5
	c-0.2,0.2-0.4,0.2-0.6,0c0,0,0,0,0,0l-0.5-0.5l-0.5,0.5c-0.2,0.2-0.4,0.2-0.6,0c0,0,0,0,0,0l-0.5-0.5l-0.5,0.5
	c-0.2,0.2-0.4,0.2-0.6,0c0,0,0,0,0,0l-0.5-0.5l-0.5,0.5c-0.2,0.2-0.4,0.2-0.6,0c0,0,0,0,0,0l-0.5-0.5L5,14.1c-0.2,0.2-0.4,0.2-0.6,0
	c0,0,0,0,0,0l-0.5-0.5l-0.5,0.5c-0.2,0.2-0.4,0.2-0.6,0c0,0-0.1-0.1-0.1-0.1l-0.4-0.8c0-0.1,0-0.1,0-0.2V3c0-0.1,0-0.1,0-0.2L2.7,2
	C2.7,1.9,2.8,1.8,3,1.8 M3.1,2.9L3,3.1v9.7l0.1,0.2l0.4-0.4c0.2-0.2,0.4-0.2,0.6,0l0.5,0.5l0.5-0.5c0.2-0.2,0.4-0.2,0.6,0
	c0,0,0,0,0,0l0.5,0.5l0.5-0.5c0.2-0.2,0.4-0.2,0.6,0c0,0,0,0,0,0L8,13.2l0.5-0.5c0.2-0.2,0.4-0.2,0.6,0c0,0,0,0,0,0l0.5,0.5l0.5-0.5
	c0.2-0.2,0.4-0.2,0.6,0c0,0,0,0,0,0l0.5,0.5l0.5-0.5c0.2-0.2,0.4-0.2,0.6,0c0,0,0,0,0,0l0.4,0.4l0.1-0.2V3.1l-0.1-0.2l-0.4,0.4
	c-0.2,0.2-0.4,0.2-0.6,0l-0.5-0.5l-0.5,0.5c-0.2,0.2-0.4,0.2-0.6,0c0,0,0,0,0,0L9.7,2.8L9.1,3.3C9,3.5,8.7,3.5,8.5,3.3c0,0,0,0,0,0
	L8,2.8L7.5,3.3C7.3,3.5,7,3.5,6.9,3.3c0,0,0,0,0,0L6.3,2.8L5.8,3.3c-0.2,0.2-0.4,0.2-0.6,0c0,0,0,0,0,0L4.7,2.8L4.2,3.3
	C4,3.5,3.7,3.5,3.6,3.3c0,0,0,0,0,0L3.1,2.9z"/>
<path class="st0" d="M3.9,5.1c0-0.2,0.2-0.4,0.4-0.4h5c0.2,0,0.4,0.2,0.4,0.4S9.5,5.5,9.2,5.5h-5C4,5.5,3.9,5.3,3.9,5.1 M3.9,6.8
	c0-0.2,0.2-0.4,0.4-0.4h5c0.2,0,0.4,0.2,0.4,0.4S9.5,7.2,9.2,7.2h-5C4,7.2,3.9,7,3.9,6.8 M3.9,8.4C3.9,8.2,4,8,4.3,8h5
	c0.2,0,0.4,0.2,0.4,0.4S9.5,8.8,9.2,8.8h-5C4,8.8,3.9,8.6,3.9,8.4 M3.9,10.1c0-0.2,0.2-0.4,0.4-0.4h5c0.2,0,0.4,0.2,0.4,0.4
	c0,0.2-0.2,0.4-0.4,0.4h-5C4,10.5,3.9,10.3,3.9,10.1 M10.5,5.1c0-0.2,0.2-0.4,0.4-0.4h0.8c0.2,0,0.4,0.2,0.4,0.4S12,5.5,11.7,5.5
	h-0.8C10.7,5.5,10.5,5.3,10.5,5.1 M10.5,6.8c0-0.2,0.2-0.4,0.4-0.4h0.8c0.2,0,0.4,0.2,0.4,0.4S12,7.2,11.7,7.2h-0.8
	C10.7,7.2,10.5,7,10.5,6.8 M10.5,8.4c0-0.2,0.2-0.4,0.4-0.4h0.8c0.2,0,0.4,0.2,0.4,0.4S12,8.8,11.7,8.8h-0.8
	C10.7,8.8,10.5,8.6,10.5,8.4 M10.5,10.1c0-0.2,0.2-0.4,0.4-0.4h0.8c0.2,0,0.4,0.2,0.4,0.4c0,0.2-0.2,0.4-0.4,0.4h-0.8
	C10.7,10.5,10.5,10.3,10.5,10.1"/>
</svg>
