<?xml version="1.0" encoding="utf-8"?>
<!-- Generator: Adobe Illustrator 27.4.1, SVG Export Plug-In . SVG Version: 6.00 Build 0)  -->
<svg version="1.1" id="图层_1" xmlns="http://www.w3.org/2000/svg" xmlns:xlink="http://www.w3.org/1999/xlink" x="0px" y="0px"
	 viewBox="0 0 72 72" style="enable-background:new 0 0 72 72;" xml:space="preserve">
<style type="text/css">
	.st0{fill:#8C5A3B;}
</style>
<path class="st0" d="M11.8,51.8c0-0.8,0-1.5,0-2.2c0-12.2,0-24.4,0-36.5c0-4.8,3-7.8,7.8-8c1.3-0.1,2.6,0,3.9,0c10.7,0,21.4,0,32,0
	c1.2,0,2.4,0,3.5,0.2c3.6,0.7,5.8,3.4,6.1,7.2c0.1,1.4,0.1,2.9,0.1,4.3c0,13.2,0,26.4,0,39.6c0,5.7-2.7,9.9-7.6,11.5
	c-1.3,0.4-2.8,0.6-4.2,0.6c-11.4,0-22.9,0-34.3,0c-3.5,0-6.6-0.8-9.1-3.4c-1.9-2-3-4.4-3.1-7.2c0-1.2-0.1-2.3,0-3.5
	c0.1-1.6,1-2.5,2.6-2.6C10.2,51.8,10.9,51.8,11.8,51.8L11.8,51.8z M16.9,51.8c7.1,0,14.1,0,21.1,0c2.4,0,4.8,0,7.2,0
	c2.4,0,3.3,0.9,3.3,3.4c0,0.9,0,1.9,0.1,2.8c0.3,3.5,2.6,5.6,6,5.4c3.2-0.1,5.5-2.5,5.5-5.7c0-14.9,0-29.8,0-44.6c0-2-1-3-3-3
	c-1.9,0-3.8,0-5.7,0c-10.4,0-20.9,0-31.3,0c-2.5,0-3.3,0.8-3.3,3.3c0,12.3,0,24.6,0,36.8L16.9,51.8L16.9,51.8z M43.2,56.8
	c0,0-0.2,0-0.4,0c-10,0-20.1,0-30.1,0c-0.1,0-0.2,0-0.3,0c-0.2,0.2-0.6,0.4-0.6,0.7c0,1.8,0.6,3.3,1.9,4.5c1.3,1.1,2.9,1.5,4.7,1.5
	c8.6,0,17.2,0,25.7,0c0.4,0,0.8,0,1,0C44.5,61.2,43.9,59.1,43.2,56.8L43.2,56.8z"/>
<path class="st0" d="M42.7,23.4c-2.5,0-5,0.1-7.5,0c-0.8,0-1.7-0.3-2.4-0.7c-0.8-0.4-1.1-1.3-0.9-2.3c0.2-1,0.8-1.6,1.7-1.9
	c0.5-0.1,1.1-0.2,1.6-0.2c5,0,10.1,0,15.1,0c0.4,0,0.8,0,1.2,0.1c1.4,0.3,2.2,1.4,2,2.7c-0.1,1.3-1,2.2-2.4,2.2
	C48.3,23.4,45.5,23.4,42.7,23.4L42.7,23.4L42.7,23.4z"/>
<path class="st0" d="M42.7,33.4c-2.7,0-5.3,0-8,0c-1.7,0-2.7-0.9-2.8-2.3c-0.1-1.4,0.9-2.4,2.5-2.5c1.3-0.1,2.6-0.1,3.9-0.1
	c3.9,0,7.9,0,11.8,0c0.5,0,0.9,0,1.4,0.1c1.3,0.2,2.1,1.3,2,2.6c-0.1,1.2-1,2.2-2.2,2.3c-2.4,0.1-4.7,0-7.1,0
	C43.7,33.4,43.2,33.4,42.7,33.4z"/>
<path class="st0" d="M42.7,43.4c-2.4,0-4.7,0-7.1,0c-0.5,0-1,0-1.5-0.1c-1.2-0.1-2.1-1.1-2.2-2.2c-0.1-1.3,0.6-2.3,1.9-2.6
	c0.4-0.1,0.7-0.2,1.1-0.2c5.3,0,10.5,0,15.8,0c0.8,0,1.6,0.4,2.2,0.9c0.7,0.6,0.9,1.5,0.5,2.5c-0.4,1-1.1,1.6-2.2,1.6
	C48.4,43.4,45.5,43.4,42.7,43.4C42.7,43.4,42.7,43.4,42.7,43.4z"/>
<path class="st0" d="M26,33.4c-1.4,0-2.5-1.1-2.5-2.5c0-1.3,1.1-2.4,2.4-2.4c1.3,0,2.5,1.2,2.5,2.5C28.4,32.3,27.3,33.4,26,33.4
	L26,33.4z"/>
<path class="st0" d="M26.1,18.5c1.4,0,2.5,1.2,2.4,2.5c-0.1,1.3-1.2,2.3-2.6,2.3c-1.3,0-2.4-1.2-2.3-2.6
	C23.6,19.4,24.7,18.5,26.1,18.5L26.1,18.5z"/>
<path class="st0" d="M26,38.6c1.4,0,2.5,1.1,2.5,2.5c0,1.3-1.2,2.4-2.5,2.4c-1.3,0-2.4-1.2-2.4-2.6C23.6,39.5,24.6,38.5,26,38.6
	L26,38.6z"/>
</svg>
