<?xml version="1.0" encoding="utf-8"?>
<!-- Generator: Adobe Illustrator 27.4.1, SVG Export Plug-In . SVG Version: 6.00 Build 0)  -->
<svg version="1.1" id="图层_1" xmlns="http://www.w3.org/2000/svg" xmlns:xlink="http://www.w3.org/1999/xlink" x="0px" y="0px"
	 viewBox="0 0 16 16" style="enable-background:new 0 0 16 16;" xml:space="preserve">
<style type="text/css">
	.st0{fill:#8C5A3B;}
</style>
<path class="st0" d="M2.6,8.1c0,1.4,0,2.8,0,4.2c0,0.1,0,0.2,0,0.3c0,0.5,0.4,0.9,0.9,0.9c0.2,0,0.4,0,0.6,0c1.9,0,3.8,0,5.8,0
	c0.7,0,0.9-0.2,1.1-0.9c0.1-0.4,0.3-0.6,0.6-0.5c0.3,0.1,0.5,0.3,0.4,0.7c-0.2,1.1-1,1.8-2.1,1.8c-2.1,0-4.2,0-6.3,0
	c-1,0-1.8-0.6-2-1.5c-0.1-0.2-0.1-0.4-0.1-0.7c0-2.9,0-5.7,0-8.5c0-0.6,0.1-1.1,0.5-1.6c0.4-0.4,0.9-0.7,1.5-0.7c2.2,0,4.4,0,6.5,0
	c1.1,0,1.9,0.9,2,2c0,0.3-0.2,0.5-0.4,0.5c-0.3,0.1-0.5-0.1-0.6-0.4c0-0.1,0-0.2-0.1-0.3c-0.1-0.5-0.4-0.8-0.9-0.8
	c-0.1,0-0.2,0-0.3,0c-2,0-4,0-6,0c-0.1,0-0.1,0-0.2,0C3,2.8,2.6,3.1,2.6,3.6c0,1.1,0,2.3,0,3.4C2.6,7.4,2.6,7.8,2.6,8.1
	C2.6,8.1,2.6,8.1,2.6,8.1z"/>
<path class="st0" d="M12.7,7.5c-0.1-0.1-0.3-0.2-0.4-0.3c-0.4-0.4-0.7-0.7-1.1-1.1c0,0-0.1-0.1-0.1-0.1c-0.2-0.3-0.2-0.6,0-0.8
	c0.2-0.2,0.5-0.2,0.8,0c0.4,0.3,0.7,0.7,1,1c0.4,0.4,0.9,0.9,1.3,1.3c0.4,0.4,0.4,0.6,0,1c-0.8,0.8-1.5,1.5-2.3,2.3
	c-0.1,0.1-0.3,0.3-0.5,0.2c-0.2,0-0.4-0.1-0.4-0.3c-0.1-0.2,0-0.4,0.1-0.6c0.5-0.5,0.9-0.9,1.4-1.4c0,0,0.1-0.1,0.2-0.2
	c-0.2,0-0.3,0-0.5,0c-2.3,0-4.6,0-6.8,0c-0.2,0-0.3,0-0.5,0c-0.3,0-0.4-0.2-0.4-0.5c0-0.3,0.2-0.5,0.4-0.5c0.1,0,0.2,0,0.3,0
	c2.3,0,4.7,0,7,0C12.3,7.6,12.4,7.6,12.7,7.5C12.6,7.6,12.6,7.5,12.7,7.5L12.7,7.5z"/>
</svg>
