<?xml version="1.0" encoding="utf-8"?>
<!-- Generator: Adobe Illustrator 27.4.1, SVG Export Plug-In . SVG Version: 6.00 Build 0)  -->
<svg version="1.1" id="_图层_2" xmlns="http://www.w3.org/2000/svg" xmlns:xlink="http://www.w3.org/1999/xlink" x="0px" y="0px"
	 viewBox="0 0 72 72" fill="#8c5a3b" style="enable-background:new 0 0 72 72;" xml:space="preserve">
<path d="M64,67.6c-0.7-0.7-1.3-1.5-2-2.2c-1.1-1.1-1.1-1.1,0-2.2c1.3-1.3,2.7-2.7,4-4c0.4-0.4,0.7-0.5,1.1,0c0.9,1,1.8,2,2.7,3v0.4
	c-0.5,0.6-1,1.3-1.5,1.8c-1.1,1.1-2.2,2.1-3.3,3.2H64z"/>
<path d="M61.1,45c-0.5-0.5-0.8-0.9-1.2-1.3c-1.2-1.2-2.3-2.3-3.5-3.5c-0.7-0.7-1-1.4-1-2.4c0-4.1,0-8.2,0-12.3v-1H15.6v28.7h1
	c8,0,15.9,0,23.9,0c0.8,0,1.3,0.2,1.9,0.8c1.4,1.5,2.9,3,4.4,4.4c0.1,0.1,0.2,0.2,0.3,0.4c-0.3,0-0.5,0.1-0.7,0.1
	c-10.1,0-20.2,0-30.4,0c-3.8,0-6.1-2.4-6.1-6.3c0-13,0-26,0-39c0-0.8,0.1-1.6,0.3-2.4c0.6-2.5,2.5-3.8,5.4-4.1c0.4,0,0.7,0,1.1,0
	c12.7,0,25.3,0,38,0c0.9,0,1.9,0.1,2.8,0.4c2.4,0.8,3.7,3,3.7,6V44C61.2,44.3,61.1,44.5,61.1,45z M55.4,18.7V13H15.6v5.6
	C15.6,18.7,55.4,18.7,55.4,18.7z"/>
<path d="M44.1,41.7c1.9,0,3.6,0,5.4,0c0.2,0,0.5,0.2,0.6,0.4c4.5,4.6,9,9.2,13.6,13.7c0.5,0.5,0.5,0.8,0,1.4c-1.5,1.5-2.9,3-4.4,4.5
	c-0.2,0.2-0.4,0.4-0.7,0.6c-1.4-1.4-2.7-2.8-4-4.1c-3.3-3.4-6.7-6.8-10-10.2c-0.3-0.3-0.6-0.8-0.6-1.2C44,45.1,44.1,43.5,44.1,41.7
	C44.1,41.7,44.1,41.7,44.1,41.7z"/>
<path d="M32.7,35.9v-5.6h17v5.6H32.7z"/>
<path d="M26.9,30.3v5.6h-5.6v-5.6H26.9z"/>
<path d="M26.9,41.8v5.6h-5.6v-5.6H26.9z"/>
<path d="M32.8,41.7h5.6v5.7h-5.6V41.7z"/>
</svg>
