<?xml version="1.0" encoding="utf-8"?>
<!-- Generator: Adobe Illustrator 27.4.1, SVG Export Plug-In . SVG Version: 6.00 Build 0)  -->
<svg version="1.1" id="图层_1" xmlns="http://www.w3.org/2000/svg" xmlns:xlink="http://www.w3.org/1999/xlink" x="0px" y="0px"
	 viewBox="0 0 24 24" style="enable-background:new 0 0 24 24;" xml:space="preserve">
<style type="text/css">
	.st0{fill:#8C5A3B;}
</style>
<path class="st0" d="M12,21.9c-2.7,0-5.3,0-8,0c-0.2,0-0.3,0-0.5,0c-0.3,0-0.5-0.2-0.5-0.5c0-0.2-0.1-0.3-0.1-0.5c0-3.2,0-6.5,0-9.7
	c0-0.4-0.1-0.8-0.3-1.1C2.3,9.4,2.1,8.7,1.9,8.1C1.9,7.9,2,7.7,2,7.5C2.2,7,2.4,6.4,2.7,5.9c0.2-0.4,0.3-0.8,0.2-1.2
	c0-0.4,0-0.7,0-1.1c0.1-0.9,0.8-1.4,1.6-1.5c0.2,0,0.3,0,0.5,0c4.6,0,9.3,0,13.9,0c0.3,0,0.5,0,0.8,0.1c0.9,0.2,1.4,0.9,1.4,1.8
	c-0.1,1,0.1,2,0.6,2.8C22.4,8,22,9,21.4,10.1c-0.2,0.3-0.3,0.6-0.3,0.9c0,3.3,0,6.6,0,9.9c0,0.7-0.3,1-1,1
	C17.4,21.9,14.7,21.9,12,21.9L12,21.9z M12,3.6C12,3.6,12,3.6,12,3.6c-1.9,0-3.9,0-5.8,0c-0.3,0-0.6,0-0.9,0c-1,0-0.9-0.1-0.9,0.9
	c0,0.7-0.1,1.4-0.4,2C3.8,6.9,3.7,7.3,3.5,7.7c-0.1,0.2-0.1,0.4,0,0.5c0.4,2.3,3.2,3.3,5,1.7c0.5-0.4,0.7-0.4,1.3,0
	c0.3,0.2,0.6,0.4,0.9,0.5c1.3,0.5,2.4,0.3,3.5-0.5c0.6-0.5,0.9-0.5,1.4,0c1.6,1.4,4.1,0.8,4.9-1.2c0.1-0.4,0.2-0.8,0-1.2
	c-0.1-0.2-0.2-0.4-0.2-0.6c-0.4-0.9-0.7-1.8-0.6-2.8c0,0,0,0,0-0.1c0-0.4,0-0.4-0.5-0.4C16.8,3.6,14.4,3.6,12,3.6L12,3.6z
	 M10.5,20.3c0-0.1,0-0.1,0-0.2c0-1.3,0-2.6,0-4c0-0.5,0-1.1,0-1.6c0-0.5,0.2-0.7,0.7-0.8c0.1,0,0.3,0,0.4,0c1.6,0,3.3,0,4.9,0
	c0.8,0,1,0.3,1,1c0,1.7,0,3.5,0,5.2c0,0.1,0,0.2,0,0.3h2v-8.6c-0.2,0.1-0.3,0.1-0.4,0.1c-1.4,0.6-2.8,0.4-4-0.5
	c-0.2-0.2-0.4-0.2-0.6,0c-1.7,1.1-3.5,1.1-5.2,0c-0.2-0.1-0.3-0.1-0.5,0c-1,0.6-2,1-3.2,0.8c-0.4-0.1-0.9-0.2-1.3-0.4
	c0,0.1,0,0.1,0,0.2c0,2.7,0,5.4,0,8.1c0,0.2,0.1,0.3,0.3,0.3c1.8,0,3.7,0,5.5,0C10.3,20.4,10.4,20.4,10.5,20.3L10.5,20.3z M12,20.4
	c0.1,0,0.1,0,0.2,0c1.2,0,2.4,0,3.6,0c0.2,0,0.2-0.1,0.2-0.3c0-1.5,0-3,0-4.5c0-0.2-0.1-0.3-0.3-0.3c-1.2,0-2.4,0-3.6,0
	c-0.1,0-0.1,0-0.2,0L12,20.4L12,20.4z"/>
<path class="st0" d="M17.3,6.1c-0.4,0-0.7-0.3-0.7-0.7c0-0.4,0.3-0.7,0.7-0.7c0.4,0,0.8,0.3,0.8,0.7C18.1,5.8,17.8,6.1,17.3,6.1
	L17.3,6.1z"/>
<path class="st0" d="M14.8,6.1c-0.4,0-0.7-0.3-0.7-0.7c0-0.4,0.3-0.7,0.7-0.7c0.4,0,0.8,0.3,0.8,0.7C15.6,5.8,15.2,6.1,14.8,6.1
	L14.8,6.1z"/>
</svg>
