<?xml version="1.0" encoding="utf-8"?>
<!-- Generator: Adobe Illustrator 27.4.1, SVG Export Plug-In . SVG Version: 6.00 Build 0)  -->
<svg version="1.1" id="图层_1" xmlns="http://www.w3.org/2000/svg" xmlns:xlink="http://www.w3.org/1999/xlink" x="0px" y="0px"
	 viewBox="0 0 24 24" style="enable-background:new 0 0 24 24;" xml:space="preserve">
<style type="text/css">
	.st0{fill:#8C5A3B;}
</style>
<path class="st0" d="M12,21c-2.5,0-5,0-7.5,0c-0.1,0-0.2,0-0.4,0c-0.5-0.1-0.7-0.2-0.8-0.7c0-0.1,0-0.3,0-0.4c0-3.7,0-7.3,0-11
	c0-0.2-0.1-0.4-0.1-0.5c-0.4-0.6-0.6-1.3-0.7-2c0-0.2,0-0.5,0.1-0.7c0.6-1.1,1.2-2.1,1.8-3.2c0.2-0.3,0.5-0.5,0.8-0.5
	c4.6,0,9.1,0,13.7,0c0.4,0,0.7,0.2,0.9,0.5c0.6,1.1,1.2,2.2,1.8,3.3c0.1,0.2,0.1,0.4,0.1,0.6c-0.1,0.7-0.4,1.4-0.8,2
	c-0.1,0.1-0.1,0.3-0.1,0.4c0,3.6,0,7.3,0,10.9c0,0.1,0,0.1,0,0.2c0,0.7-0.3,1-1,1c-0.9,0-1.7,0-2.6,0C15.4,21,13.7,21,12,21L12,21z
	 M17.2,8.9c1.4,0,2.6-0.9,2.9-2.3c0-0.2,0-0.4-0.1-0.5c-0.4-0.8-0.9-1.5-1.3-2.3c-0.1-0.2-0.2-0.3-0.5-0.3c-3,0-6,0-9,0
	c-1.2,0-2.5,0-3.7,0c-0.1,0-0.3,0.1-0.3,0.1C4.8,4.5,4.4,5.3,3.9,6C3.8,6.2,3.8,6.4,3.8,6.6c0.2,1,0.9,1.7,1.8,2.1
	c1.1,0.4,2.1,0.2,3-0.6c0.4-0.4,0.7-0.3,1.2,0c0.4,0.3,0.8,0.5,1.3,0.7c1.1,0.3,2.2,0.1,3.1-0.6c0.5-0.4,0.7-0.4,1.2,0
	C15.9,8.6,16.5,8.9,17.2,8.9L17.2,8.9z M14.7,9.4C14.7,9.4,14.7,9.4,14.7,9.4c-1.8,1.2-3.5,1.3-5.2,0.1C9.3,9.4,9.2,9.4,9,9.5
	c-0.9,0.6-1.9,0.9-3,0.7C5.6,10.2,5.2,10,4.7,9.9v9.6h1.9c0-0.1,0-0.2,0-0.4c0-2.1,0-4.2,0-6.3c0-0.8,0.3-1,1-1c2.8,0,5.7,0,8.5,0
	c0.8,0,1.1,0.3,1.1,1.1c0,2.1,0,4.2,0,6.3c0,0.1,0,0.2,0,0.3h1.9V9.8C17.6,10.6,16.1,10.4,14.7,9.4L14.7,9.4z M8.1,19.5h3.1v-6.3
	H8.1C8.1,13.2,8.1,19.5,8.1,19.5z M15.9,19.5v-6.3h-3.1v6.3H15.9z"/>
</svg>
