<svg xmlns="http://www.w3.org/2000/svg" viewBox="0 0 24 24" fill="#8c5a3b">
	<path class="st0" d="M10.4,13.2c0,0.3,0.1,0.4,0.2,0.6c0.6,0.7,1.2,1.5,1.3,2.5c0.3,1.8-0.3,3.4-1.7,4.6c-3.2,2.6-7.1,0.8-8.1-2.2
		c-0.6-1.8-0.2-3.4,1.1-4.8c0.2-0.2,0.2-0.4,0.2-0.6c0-2.4,0-4.9,0-7.3c0-0.3,0-0.7,0.1-1c0.2-1.6,1.7-2.9,3.3-2.9
		c1.7,0,3.3,1.3,3.4,3.1L10.4,13.2z M8.8,9.5c0-1.4,0-2.7,0-4.1c0-1.1-0.8-2-1.9-2c-1.1,0-1.8,0.8-1.8,2c0,2.6,0,5.2,0,7.8
		c0,0.5-0.2,0.9-0.5,1.3c-1,0.9-1.3,2.1-1,3.4c0.3,1.3,1.2,2.1,2.5,2.5c1.3,0.3,2.5-0.1,3.4-1.1c1.3-1.4,1.1-3.5-0.2-4.8
		c-0.3-0.3-0.5-0.7-0.5-1.2C8.9,12.1,8.8,10.8,8.8,9.5L8.8,9.5z"/>
	<path class="st0" d="M22,6.2c0.1,0.2-0.1,0.4-0.2,0.5c-0.8,0.7-1,1.7-0.5,2.5c0.1,0.3,0.4,0.5,0.6,0.7c0.1,0.1,0.2,0.3,0.1,0.4
		c-0.2,0.3-0.4,0.7-0.5,1c-0.1,0.2-0.3,0.2-0.5,0.2c-0.5-0.2-1-0.2-1.5,0c-0.6,0.2-1,0.7-1.2,1.3c0,0.1-0.1,0.3-0.1,0.4
		c0,0.3-0.2,0.4-0.4,0.4c-0.3,0-0.6,0-0.9,0c-0.3,0-0.4-0.1-0.5-0.4c-0.1-0.5-0.3-0.9-0.6-1.3c-0.6-0.6-1.4-0.7-2.2-0.4
		c-0.2,0.1-0.3,0.1-0.5-0.2c-0.2-0.3-0.4-0.7-0.5-1c-0.1-0.2,0-0.3,0.1-0.5c1.1-1,1.1-2.2,0-3.2c-0.1-0.1-0.1-0.3-0.1-0.4
		c0.2-0.4,0.4-0.7,0.6-1.1C13.3,5,13.4,5,13.6,5.1c1.5,0.4,2.5-0.1,2.8-1.6C16.5,3.1,16.6,3,16.9,3c0.3,0,0.7,0,1,0
		c0.2,0,0.3,0.1,0.3,0.3c0,0.1,0.1,0.3,0.1,0.4c0.4,1.2,1.4,1.8,2.6,1.4c0.3-0.1,0.4,0,0.6,0.2C21.7,5.6,21.8,5.7,22,6.2L22,6.2z
		 M17.3,9.9c0.9,0,1.6-0.7,1.6-1.6c0-0.9-0.7-1.6-1.6-1.6c-0.9,0-1.6,0.7-1.6,1.6C15.8,9.2,16.4,9.9,17.3,9.9L17.3,9.9z"/>
	<path class="st0" d="M7.8,11.9c0,0.9,0,1.7,0,2.6c0,0.3,0.1,0.4,0.3,0.5c1.3,0.7,1.7,2.2,0.9,3.4c-0.5,0.8-1.6,1.3-2.5,1
		c-1-0.2-1.8-1.1-1.9-2.1c-0.1-1,0.5-1.9,1.4-2.3c0.2-0.1,0.2-0.2,0.2-0.4c0-1.7,0-3.4,0-5.1c0-0.2,0-0.4,0.1-0.6
		C6.3,8.5,6.6,8.3,7,8.3s0.6,0.2,0.7,0.5C7.7,9,7.8,9.2,7.8,9.4C7.8,10.2,7.8,11.1,7.8,11.9L7.8,11.9z"/>
</svg>
