<?xml version="1.0" encoding="utf-8"?>
<!-- Generator: Adobe Illustrator 27.4.1, SVG Export Plug-In . SVG Version: 6.00 Build 0)  -->
<svg version="1.1" id="图层_1" xmlns="http://www.w3.org/2000/svg" xmlns:xlink="http://www.w3.org/1999/xlink" x="0px" y="0px"
	 viewBox="0 0 24 24" style="enable-background:new 0 0 24 24;" xml:space="preserve">
<style type="text/css">
	.st0{fill:#8C5A3B;}
</style>
<path class="st0" d="M15.5,13c0,0.3,0.1,0.4,0.2,0.6c0.6,0.7,1.2,1.5,1.3,2.5c0.3,1.8-0.3,3.4-1.7,4.6c-3.2,2.6-7.1,0.8-8.1-2.2
	c-0.6-1.8-0.2-3.4,1.1-4.8c0.2-0.2,0.2-0.4,0.2-0.6c0-2.4,0-4.9,0-7.3c0-0.3,0-0.7,0.1-1c0.2-1.6,1.7-2.9,3.3-2.9
	c1.7,0,3.3,1.3,3.4,3.1L15.5,13z M13.9,9.3c0-1.4,0-2.7,0-4.1c0-1.1-0.8-2-1.9-2s-1.8,0.8-1.8,2c0,2.6,0,5.2,0,7.8
	c0,0.5-0.2,0.9-0.5,1.3c-1,0.9-1.3,2.1-1,3.4c0.3,1.3,1.2,2.1,2.5,2.5c1.3,0.3,2.5-0.1,3.4-1.1c1.3-1.4,1.1-3.5-0.2-4.8
	c-0.3-0.3-0.5-0.7-0.5-1.2C14,11.9,13.9,10.6,13.9,9.3L13.9,9.3z"/>
<path class="st0" d="M12.9,11.7c0,0.9,0,1.7,0,2.6c0,0.3,0.1,0.4,0.3,0.5c1.3,0.7,1.7,2.2,0.9,3.4c-0.5,0.8-1.6,1.3-2.5,1
	c-1-0.2-1.8-1.1-1.9-2.1c-0.1-1,0.5-1.9,1.4-2.3c0.2-0.1,0.2-0.2,0.2-0.4c0-1.7,0-3.4,0-5.1c0-0.2,0-0.4,0.1-0.6
	c0-0.4,0.3-0.6,0.7-0.6c0.4,0,0.6,0.2,0.7,0.5c0,0.2,0.1,0.4,0.1,0.6C12.9,10,12.9,10.9,12.9,11.7L12.9,11.7z"/>
</svg>
