<?xml version="1.0" encoding="utf-8"?>
<!-- Generator: Adobe Illustrator 27.4.1, SVG Export Plug-In . SVG Version: 6.00 Build 0)  -->
<svg version="1.1" id="图层_1" xmlns="http://www.w3.org/2000/svg" xmlns:xlink="http://www.w3.org/1999/xlink" x="0px" y="0px"
	 viewBox="0 0 24 24" style="enable-background:new 0 0 24 24;" xml:space="preserve">
<style type="text/css">
	.st0{fill:#8C5A3B;}
</style>
<path class="st0" d="M12.1,21.4c-2.1,0-4.3,0-6.5,0c-0.3,0-0.7-0.1-1-0.1c-0.9-0.2-2-1.2-2-2.4c0-1,0-2.1-0.1-3.1c0-0.4,0-0.7,0-1.1
	c0.1-0.4,0.5-0.8,0.8-0.8c0.5,0,0.9,0.3,1,0.8c0,0.1,0,0.3,0,0.4c0,1.1,0,2.2,0,3.4c0,0.6,0.5,1,1,1c4.4,0,8.8,0,13.1,0
	c0.6,0,1-0.4,1-1c0-1.1,0-2.3,0-3.4c0-0.4,0.1-0.8,0.5-1.1c0.5-0.4,1.3,0,1.4,0.6c0,0.1,0,0.3,0,0.4c0,1.1,0,2.2,0,3.2
	c0,0.8-0.2,1.5-0.7,2.1c-0.5,0.6-1.1,0.9-1.9,1c-0.4,0-0.9,0-1.3,0C15.8,21.4,13.9,21.4,12.1,21.4L12.1,21.4z"/>
<path class="st0" d="M12.9,5.8v0.3c0,2.8,0,5.7,0,8.5c0,0.3,0,0.6-0.2,0.8c-0.2,0.3-0.6,0.4-1,0.3c-0.4-0.1-0.6-0.5-0.7-0.9
	c0-0.1,0-0.2,0-0.3c0-2.8,0-5.6,0-8.4V5.8c-0.1,0-0.1,0.1-0.1,0.1C10,6.8,9.1,7.7,8.2,8.6C8.1,8.7,8,8.9,7.8,9
	C7.3,9.3,6.6,9.1,6.4,8.5c-0.1-0.3,0-0.6,0.2-0.8c0.1-0.1,0.2-0.3,0.3-0.4c1.5-1.5,2.9-2.9,4.4-4.4c0.4-0.4,1-0.4,1.4,0
	C13.8,4,14.8,5,15.9,6.1c0.4,0.4,0.9,0.9,1.3,1.3c0.2,0.2,0.3,0.4,0.4,0.6c0.1,0.6-0.5,1.2-1.1,1C16.2,9,16,8.8,15.8,8.7
	C14.9,7.8,14,6.9,13.2,6C13.1,6,13.1,5.9,12.9,5.8C13,5.8,13,5.8,12.9,5.8L12.9,5.8z"/>
</svg>
