<?xml version="1.0" encoding="utf-8"?>
<!-- Generator: Adobe Illustrator 27.4.1, SVG Export Plug-In . SVG Version: 6.00 Build 0)  -->
<svg version="1.1" id="图层_1" xmlns="http://www.w3.org/2000/svg" xmlns:xlink="http://www.w3.org/1999/xlink" x="0px" y="0px"
	 viewBox="0 0 24 24" style="enable-background:new 0 0 24 24;" xml:space="preserve">
<style type="text/css">
	.st0{fill:#8C5A3B;}
</style>
<path class="st0" d="M12.1,19.6c2,0,4.1,0,6.1,0c0.9,0,1.4-0.5,1.4-1.3c0-2.3,0-4.5,0-6.7c0-0.3-0.1-0.6-0.2-0.8
	c-0.2-0.5-0.6-0.7-1-0.7c-0.3,0-0.7,0-1,0c-0.4,0-0.7-0.2-0.8-0.6c-0.1-0.3,0-0.6,0.3-0.7c0.1-0.1,0.3-0.2,0.5-0.2
	c0.5,0,1.1,0,1.6,0.1c1.1,0.2,1.9,1.1,2.1,2.3c0,0.3,0.1,0.6,0.1,0.9c0,2,0,4.1,0,6.1c0,0.7-0.1,1.4-0.5,2c-0.6,0.8-1.4,1.1-2.3,1.2
	c-0.1,0-0.2,0-0.3,0c-4,0-8,0-12,0c-1.4,0-2.6-0.8-2.9-2.1c-0.1-0.3-0.1-0.6-0.1-0.9c0-2.2,0-4.4,0-6.6c0-1.4,0.9-2.9,2.8-3
	c0.4,0,0.8,0,1.2,0.1c0.3,0,0.6,0.4,0.6,0.7c0,0.3-0.2,0.6-0.5,0.7C6.5,10,6.1,10,5.8,10c-0.4,0-0.8,0.1-1,0.4
	c-0.2,0.2-0.3,0.5-0.3,0.8c0,2.3,0,4.6,0,7c0,0.9,0.5,1.4,1.4,1.4C7.9,19.6,10,19.6,12.1,19.6C12.1,19.6,12.1,19.6,12.1,19.6
	L12.1,19.6z"/>
<path class="st0" d="M12.8,5.6c0,0.7,0,1.4,0,2.1c0,2.8,0,5.6,0,8.4c0,0.4-0.1,0.8-0.5,0.9c-0.4,0.2-0.8,0-0.9-0.4
	c-0.1-0.2-0.1-0.4-0.1-0.6c0-3.3,0-6.6,0-10c0-0.1,0-0.3,0-0.4c0,0,0,0-0.1,0c-0.4,0.4-0.8,0.8-1.2,1.2C9.9,6.9,9.7,7,9.5,7.2
	C9.2,7.5,8.8,7.5,8.5,7.2c-0.3-0.3-0.3-0.7,0-1.1c0.8-0.9,1.7-1.7,2.6-2.6c0.9-0.9,1.1-0.9,1.9,0c0.8,0.8,1.7,1.7,2.5,2.5
	c0.2,0.2,0.3,0.4,0.3,0.6c0.1,0.3-0.1,0.5-0.3,0.7c-0.3,0.2-0.5,0.2-0.8,0c-0.3-0.2-0.6-0.5-0.9-0.8C13.4,6.2,13.1,5.9,12.8,5.6
	L12.8,5.6z"/>
</svg>
