<?xml version="1.0" encoding="utf-8"?>
<!-- Generator: Adobe Illustrator 27.4.1, SVG Export Plug-In . SVG Version: 6.00 Build 0)  -->
<svg version="1.1" id="图层_1" xmlns="http://www.w3.org/2000/svg" xmlns:xlink="http://www.w3.org/1999/xlink" x="0px" y="0px"
	 viewBox="0 0 24 24" style="enable-background:new 0 0 24 24;" xml:space="preserve">
<style type="text/css">
	.st0{fill:#8C5A3B;}
</style>
<path class="st0" d="M12,3.8c2.4,0,4.7,0,7.1,0c0.7,0,1.5,0.1,2.1,0.6c0.8,0.6,1.1,1.4,1.1,2.3c0,3.5,0,7,0,10.4
	c0,1.5-0.9,2.6-2.2,2.9c-0.3,0.1-0.7,0.1-1,0.1c-4.7,0-9.4,0-14.1,0c-1.5,0-2.6-0.8-2.9-2.1c-0.1-0.3-0.1-0.6-0.1-0.9
	c0-3.4,0-6.8,0-10.2c0-1.8,1.1-3,2.9-3.1c1.1,0,2.2,0,3.3,0C9.3,3.8,10.7,3.8,12,3.8L12,3.8z M12,18.6C12,18.6,12,18.6,12,18.6
	c2.4,0,4.8,0,7.2,0c0.9,0,1.4-0.5,1.4-1.4c0-3.4,0-6.9,0-10.3c0-0.1,0-0.2,0-0.3c-0.1-0.8-0.5-1.3-1.2-1.3c-4.9,0-9.9,0-14.8,0
	c-0.8,0-1.3,0.5-1.3,1.3c0,3.5,0,7,0,10.4c0,1,0.5,1.5,1.5,1.5C7.2,18.6,9.6,18.6,12,18.6L12,18.6z"/>
<path class="st0" d="M15.3,13.6c0,0.3,0,0.5,0,0.7c0,0.5-0.3,0.7-0.6,0.7c-0.3,0-0.6-0.3-0.6-0.7c0-1.5,0-3.1,0-4.6
	c0-0.5,0.2-0.7,0.7-0.8c0.6,0,1.3,0,1.9,0c1.1,0.1,1.9,1.1,1.9,2.2c0,1.2-0.8,2.1-1.9,2.3C16.3,13.5,15.8,13.5,15.3,13.6L15.3,13.6z
	 M15.3,10.2v2c0.4,0,0.8,0,1.2,0c0.5,0,0.8-0.5,0.8-1c0-0.5-0.3-1-0.8-1.1C16.2,10.2,15.8,10.2,15.3,10.2z"/>
<path class="st0" d="M7.9,12.7C8,12.4,8.1,12.2,8.2,12c0.3-0.8,0.7-1.7,1-2.5C9.3,9.2,9.5,9,9.8,9c0.4,0,0.7,0.4,0.6,0.8
	c-0.2,0.6-0.4,1.1-0.7,1.7c-0.4,0.9-0.7,1.8-1.1,2.8c0,0.1-0.1,0.2-0.2,0.3c-0.1,0.3-0.3,0.4-0.6,0.4c-0.3,0-0.4-0.2-0.5-0.4
	c-0.1-0.3-0.3-0.6-0.4-0.9c-0.4-1.1-0.9-2.3-1.3-3.4c-0.1-0.2-0.1-0.3-0.2-0.5C5.3,9.4,5.5,9.1,5.8,9c0.3-0.1,0.6,0,0.8,0.3
	c0.2,0.4,0.3,0.7,0.5,1.1C7.3,11.2,7.6,11.9,7.9,12.7L7.9,12.7z"/>
<path class="st0" d="M12.8,12c0,0.7,0,1.4,0,2.1c0,0.1,0,0.2,0,0.3c-0.1,0.4-0.3,0.6-0.6,0.6c-0.3,0-0.5-0.2-0.6-0.6
	c0-0.1,0-0.2,0-0.3c0-1.4,0-2.8,0-4.2c0-0.2,0-0.4,0.1-0.5C11.7,9.1,11.9,9,12.2,9c0.3,0,0.5,0.2,0.5,0.4c0,0.2,0.1,0.3,0.1,0.5
	C12.8,10.6,12.8,11.3,12.8,12L12.8,12z"/>
</svg>
